# xmcd CD database file
#
# Track frame offsets:
#	150
#	13225
#	25723
#	39340
#	51728
#	64697
#	77685
#	88022
#	100250
#	111888
#	122979
#	133821
#	145353
#	156151
#	166723
#	177986
#	187931
#	197789
#	209038
#	220220
#	231293
#	239064
#	247826
#	258543
#	268585
#
# Disc length: 3775 seconds
#
# Revision: 0
# Processed by: cddbd v1.5.1PL2 Copyright (c) Steve Scherf et al.
# Submitted via: CDex 1.51
#
DISCID=740ebd19
DTITLE=Cousin Joe - The Complete 1947-1955 Vol. 3
DYEAR=1900
DGENRE=Blues
TTITLE0=Beggin' Woman
TTITLE1=Sadie Brown
TTITLE2=Evolution Blues
TTITLE3=Box Car Shorty's Confession
TTITLE4=Looking For My Baby
TTITLE5=High-Powered Gal
TTITLE6=Chicken A La Blues
TTITLE7=Poor Man Blues
TTITLE8=Living On Borrowed Time
TTITLE9=Lovesick Soul
TTITLE10=Second Hand Soul
TTITLE11=Dinah
TTITLE12=Won't Settle Down
TTITLE13=Misery
TTITLE14=A.B.C.'s pt. 1
TTITLE15=A.B.C.'s pt. 2
TTITLE16=How Long Must I Wait
TTITLE17=Sleep Walking Woman
TTITLE18=Easy Rockin'
TTITLE19=Hole In The Ground
TTITLE20=You'll Never Get Nothing Without Trying
TTITLE21=Ramblin' Woman
TTITLE22=Feel Like A Million
TTITLE23=Old Man's Sweetheart
TTITLE24=I Saw Mommy Kissin' Santa Claus
EXTD=
EXTT0=
EXTT1=
EXTT2=
EXTT3=
EXTT4=
EXTT5=
EXTT6=
EXTT7=
EXTT8=
EXTT9=
EXTT10=
EXTT11=
EXTT12=
EXTT13=
EXTT14=
EXTT15=
EXTT16=
EXTT17=
EXTT18=
EXTT19=
EXTT20=
EXTT21=
EXTT22=
EXTT23=
EXTT24=
PLAYORDER=
